<svg xmlns="http://www.w3.org/2000/svg" xmlns:svg="http://www.w3.org/2000/svg" xmlns:xlink="http://www.w3.org/1999/xlink" version="1.0" height="1580pt" width="3070.000000000001pt" viewBox="-225.0000000000009 -383 3078.000000000001 1586" ><defs><style type="text/css">
            @font-face {
                font-family: 'noto_regular';
                src: url('https://app.creately.com/diagram/assets/fonts/noto/noto-regular.woff') format('woff'),
                     url('https://app.creately.com/diagram/assets/fonts/noto/noto-regular.woff2') format('woff2');
                font-weight: normal;
                font-style: normal;
            }
        p {
            margin: 0;
        }
        </style></defs><defs><style>
            span{ display: inline-block; }
        </style></defs><g id="TcHG4rNJ6sE"><g transform="translate(-220.0000000000009 -380)"><rect x="0" y="0" width="3070.000000000001" height="1580" fill="rgb(242,245,249)" stroke="#f2f5f9" stroke-width="2" stroke-linecap="round" stroke-linejoin="round"/></g><g transform="translate(993.7899999999995, -370) rotate(0, 321.21, 0)" width="642.42" height="87.21"><text text-decoration="none" x="126.20999999999998" fill="#20293a" font-weight="bold" font-size="48pt" font-family="noto_regular"  y="68">Stakeholder&#160;</text><text text-decoration="none" x="181.20999999999998" fill="#20293a" font-weight="bold" font-size="48pt" font-family="noto_regular"  y="155">Register&#160;</text><text text-decoration="none" x="461.21" fill="#4b4b4b" font-size="10pt" font-family="noto_regular"  y="155"></text></g></g><g id="e4oLOwOXkpU"><g transform="translate(-119.99999999999932 -190)"><rect x="0" y="0" width="229.99999999999994" height="80.00000000000001" fill="rgb(131,140,241)" stroke="#7e7e7e" stroke-width="2" stroke-linecap="round" stroke-linejoin="round"/></g><g transform="translate(-109.99999999999932, -166.4) rotate(0, 0, 16.4)" width="152.79" height="32.8"><text text-decoration="none" x="0" fill="#ffffff" font-size="18pt" font-family="noto_regular"  y="26">Project&#160;</text><text text-decoration="none" x="83" fill="#ffffff" font-size="18pt" font-family="noto_regular"  y="26">Name</text><text text-decoration="none" x="149" fill="#4b4b4b" font-size="10pt" font-family="noto_regular"  y="26"></text></g></g><g id="bzkAo7vJFY3"><g transform="translate(110.00000000000045 -189.99999999999227)"><rect x="0" y="0" width="659.9999999999999" height="80.00000000000001" fill="white" stroke="#ffffff" stroke-width="2" stroke-linecap="round" stroke-linejoin="round"/></g></g><g id="7CbnQy3EjYZ"><g transform="translate(-119.99999999999932 -99.99999999999227)"><rect x="0" y="0" width="229.99999999999994" height="80.00000000000001" fill="rgb(131,140,241)" stroke="#7e7e7e" stroke-width="2" stroke-linecap="round" stroke-linejoin="round"/></g><g transform="translate(-109.99999999999932, -76.39999999999226) rotate(0, 0, 16.4)" width="186.87" height="32.8"><text text-decoration="none" x="0" fill="#ffffff" font-size="18pt" font-family="noto_regular"  y="26">Project&#160;</text><text text-decoration="none" x="83" fill="#ffffff" font-size="18pt" font-family="noto_regular"  y="26">Manager</text><text text-decoration="none" x="182" fill="#4b4b4b" font-size="10pt" font-family="noto_regular"  y="26"></text></g></g><g id="OfHMDvNPMtz"><g transform="translate(110.00000000000045 -99.99999999998431)"><rect x="0" y="0" width="659.9999999999999" height="80.00000000000001" fill="white" stroke="#ffffff" stroke-width="2" stroke-linecap="round" stroke-linejoin="round"/></g></g><g id="KlWNMbAtvSg"><g transform="translate(-119.99999999999989 29.999999999999886)"><rect x="0" y="0" width="419.99999999999994" height="90.00000000000021" fill="rgb(131,140,241)" stroke="#ffffff" stroke-width="2" stroke-linecap="round" stroke-linejoin="round"/></g><g transform="translate(-109.99999999999989, 58.6) rotate(0, 0, 16.4)" width="215.58" height="32.8"><text text-decoration="none" x="0" fill="#ffffff" font-size="18pt" font-family="noto_regular"  y="26">Stakeholder&#160;</text><text text-decoration="none" x="140" fill="#ffffff" font-size="18pt" font-family="noto_regular"  y="26">Name&#160;</text><text text-decoration="none" x="212" fill="#4b4b4b" font-size="10pt" font-family="noto_regular"  y="26"></text></g></g><g id="wO6odpvQTa5"><g transform="translate(300 30)"><rect x="0" y="0" width="299.999999999999" height="90.00000000000021" fill="rgb(131,140,241)" stroke="#ffffff" stroke-width="2" stroke-linecap="round" stroke-linejoin="round"/></g><g transform="translate(310, 58.600000000000115) rotate(0, 0, 16.4)" width="49.18" height="32.8"><text text-decoration="none" x="0" fill="#ffffff" font-size="18pt" font-family="noto_regular"  y="26">Role</text><text text-decoration="none" x="49" fill="#4b4b4b" font-size="10pt" font-family="noto_regular"  y="26"></text></g></g><g id="AZbQTZHJ2Mw"><g transform="translate(600 30)"><rect x="0" y="0" width="440" height="90.00000000000021" fill="rgb(131,140,241)" stroke="#ffffff" stroke-width="2" stroke-linecap="round" stroke-linejoin="round"/></g><g transform="translate(610, 58.600000000000115) rotate(0, 0, 16.4)" width="93.07" height="32.8"><text text-decoration="none" x="0" fill="#ffffff" font-size="18pt" font-family="noto_regular"  y="26">Contact&#160;</text><text text-decoration="none" x="91" fill="#4b4b4b" font-size="10pt" font-family="noto_regular"  y="26"></text></g></g><g id="zwiIRczlyBM"><g transform="translate(1040 30)"><rect x="0" y="0" width="279.99999999999983" height="90.00000000000021" fill="rgb(131,140,241)" stroke="#ffffff" stroke-width="2" stroke-linecap="round" stroke-linejoin="round"/></g><g transform="translate(1050, 58.600000000000115) rotate(0, 0, 16.4)" width="114.74" height="32.8"><text text-decoration="none" x="0" fill="#ffffff" font-size="18pt" font-family="noto_regular"  y="26">Category&#160;&#160;</text><text text-decoration="none" x="111" fill="#4b4b4b" font-size="10pt" font-family="noto_regular"  y="26"></text></g></g><g id="jbcdN2THHi2"><g transform="translate(1319.9999999999995 30.000000000000227)"><rect x="0" y="0" width="270.00000000000034" height="90.00000000000021" fill="rgb(131,140,241)" stroke="#ffffff" stroke-width="2" stroke-linecap="round" stroke-linejoin="round"/></g><g transform="translate(1329.9999999999995, 58.60000000000034) rotate(0, 0, 16.4)" width="83.84" height="32.8"><text text-decoration="none" x="0" fill="#ffffff" font-size="18pt" font-family="noto_regular"  y="26">Power&#160;&#160;</text><text text-decoration="none" x="83" fill="#4b4b4b" font-size="10pt" font-family="noto_regular"  y="26"></text></g></g><g id="9QyOdckd2Sa"><g transform="translate(1589.9999999999955 30.000000000000227)"><rect x="0" y="0" width="270.00000000000034" height="90.00000000000021" fill="rgb(131,140,241)" stroke="#ffffff" stroke-width="2" stroke-linecap="round" stroke-linejoin="round"/></g><g transform="translate(1599.9999999999955, 58.60000000000034) rotate(0, 0, 16.4)" width="107.49" height="32.8"><text text-decoration="none" x="0" fill="#ffffff" font-size="18pt" font-family="noto_regular"  y="26">Interest&#160;&#160;&#160;</text><text text-decoration="none" x="103" fill="#4b4b4b" font-size="10pt" font-family="noto_regular"  y="26"></text></g></g><g id="AN4X1QrnVuF"><g transform="translate(1860 30.000000000000114)"><rect x="0" y="0" width="440" height="90.00000000000021" fill="rgb(131,140,241)" stroke="#ffffff" stroke-width="2" stroke-linecap="round" stroke-linejoin="round"/></g><g transform="translate(1870, 58.60000000000023) rotate(0, 0, 16.4)" width="149.93" height="32.8"><text text-decoration="none" x="0" fill="#ffffff" font-size="18pt" font-family="noto_regular"  y="26">Expectations&#160;</text><text text-decoration="none" x="147" fill="#4b4b4b" font-size="10pt" font-family="noto_regular"  y="26"></text></g></g><g id="0BzRhWkv0Xr"><g transform="translate(2299.9999999999955 30.000000000000114)"><rect x="0" y="0" width="440" height="90.00000000000021" fill="rgb(131,140,241)" stroke="#ffffff" stroke-width="2" stroke-linecap="round" stroke-linejoin="round"/></g><g transform="translate(2309.9999999999955, 58.60000000000023) rotate(0, 0, 16.4)" width="350.78" height="32.8"><text text-decoration="none" x="0" fill="#ffffff" font-size="18pt" font-family="noto_regular"  y="26">Communication&#160;</text><text text-decoration="none" x="184" fill="#ffffff" font-size="18pt" font-family="noto_regular"  y="26">Requirements&#160;</text><text text-decoration="none" x="346" fill="#4b4b4b" font-size="10pt" font-family="noto_regular"  y="26"></text></g></g><g id="b6OQ3f8Tffp"><g transform="translate(-120 120)"><rect x="0" y="0" width="419.99999999999994" height="119.99999999999935" fill="rgb(201,210,250)" stroke="#ffffff" stroke-width="2" stroke-linecap="round" stroke-linejoin="round"/></g><g transform="translate(-110, 163.59999999999965) rotate(0, 0, 16.4)" width="141.71" height="32.8"><text text-decoration="none" x="0" fill="#4b4b4b" font-size="18pt" font-family="noto_regular"  y="26">Alan&#160;</text><text text-decoration="none" x="55" fill="#4b4b4b" font-size="18pt" font-family="noto_regular"  y="26">Richard</text><text text-decoration="none" x="140" fill="#4b4b4b" font-size="10pt" font-family="noto_regular"  y="26"></text></g></g><g id="xXUVxglfpc5"><g transform="translate(299.9999999999998 120.00000000000023)"><rect x="0" y="0" width="299.999999999999" height="119.99999999999935" fill="rgb(201,210,250)" stroke="#ffffff" stroke-width="2" stroke-linecap="round" stroke-linejoin="round"/></g><g transform="translate(309.9999999999998, 163.59999999999988) rotate(0, 0, 16.4)" width="186.87" height="32.8"><text text-decoration="none" x="0" fill="#4b4b4b" font-size="18pt" font-family="noto_regular"  y="26">Project&#160;</text><text text-decoration="none" x="83" fill="#4b4b4b" font-size="18pt" font-family="noto_regular"  y="26">Manager</text><text text-decoration="none" x="182" fill="#4b4b4b" font-size="10pt" font-family="noto_regular"  y="26"></text></g></g><g id="DsceLVdcNEr"><g transform="translate(599.9999999999998 120.00000000000023)"><rect x="0" y="0" width="440" height="120" fill="rgb(201,210,250)" stroke="#ffffff" stroke-width="2" stroke-linecap="round" stroke-linejoin="round"/></g><g transform="translate(609.9999999999998, 147.20000000000022) rotate(0, 0, 32.8)" width="263.64" height="65.6"><text text-decoration="none" x="0" fill="#4b4b4b" font-size="18pt" font-family="noto_regular"  y="26">Phone:&#160;</text><text text-decoration="none" x="84" fill="#4b4b4b" font-size="18pt" font-family="noto_regular"  y="26">+61&#160;</text><text text-decoration="none" x="0" fill="#4b4b4b" font-size="18pt" font-family="noto_regular"  y="59">5698654387</text><text text-decoration="none" x="140" fill="#4b4b4b" font-size="18pt" font-family="noto_regular"  y="59"></text><text text-decoration="none" x="0" fill="#4b4b4b" font-size="18pt" font-family="noto_regular"  y="92">Email:&#160;</text><text text-decoration="none" x="72" fill="#4b4b4b" font-size="18pt" font-family="noto_regular"  y="92">alan@mail.com</text><text text-decoration="none" x="242" fill="#4b4b4b" font-size="10pt" font-family="noto_regular"  y="92"></text></g></g><g id="T9AtlVuQaq0"><g transform="translate(1040.0000000000002 120.00000000000023)"><rect x="0" y="0" width="279.99999999999983" height="119.99999999999935" fill="rgb(201,210,250)" stroke="#ffffff" stroke-width="2" stroke-linecap="round" stroke-linejoin="round"/></g><g transform="translate(1050.0000000000002, 163.59999999999988) rotate(0, 0, 16.4)" width="89.58" height="32.8"><text text-decoration="none" x="0" fill="#4b4b4b" font-size="18pt" font-family="noto_regular"  y="26">Internal</text><text text-decoration="none" x="87" fill="#4b4b4b" font-size="10pt" font-family="noto_regular"  y="26"></text></g></g><g id="VtDdryPtBP1"><g transform="translate(1319.9999999999993 120.00000000000068)"><rect x="0" y="0" width="270.00000000000034" height="119.99999999999935" fill="rgb(201,210,250)" stroke="#ffffff" stroke-width="2" stroke-linecap="round" stroke-linejoin="round"/></g><g transform="translate(1448.7649999999996, 163.49500000000035) rotate(0, 6.235, 16.505)" width="12.47" height="33.01"><text text-decoration="none" x="12.235" fill="#4b4b4b" font-size="10pt" font-family="noto_regular"  y="26"></text></g></g><g id="CQ8aeYusceM"><g transform="translate(1589.9999999999957 120.00000000000068)"><rect x="0" y="0" width="270.00000000000034" height="119.99999999999935" fill="rgb(201,210,250)" stroke="#ffffff" stroke-width="2" stroke-linecap="round" stroke-linejoin="round"/></g><g transform="translate(1724.9949999999958, 171.00000000000034) rotate(0, 0.005, 9)" width="0.01" height="18"><text text-decoration="none" x="0.005" fill="#4b4b4b" font-size="10pt" font-family="noto_regular"  y="17"></text></g></g><g id="iPmKRTXkcFt"><g transform="translate(1860.0000000000002 120.00000000000023)"><rect x="0" y="0" width="440" height="119.99999999999935" fill="rgb(201,210,250)" stroke="#ffffff" stroke-width="2" stroke-linecap="round" stroke-linejoin="round"/></g><g transform="translate(1870.0000000000002, 147.19999999999987) rotate(0, 0, 32.8)" width="395.68" height="65.6"><text text-decoration="none" x="0" fill="#4b4b4b" font-size="18pt" font-family="noto_regular"  y="26">Project&#160;</text><text text-decoration="none" x="83" fill="#4b4b4b" font-size="18pt" font-family="noto_regular"  y="26">to&#160;</text><text text-decoration="none" x="112" fill="#4b4b4b" font-size="18pt" font-family="noto_regular"  y="26">be&#160;</text><text text-decoration="none" x="146" fill="#4b4b4b" font-size="18pt" font-family="noto_regular"  y="26">delivered&#160;</text><text text-decoration="none" x="255" fill="#4b4b4b" font-size="18pt" font-family="noto_regular"  y="26">on&#160;</text><text text-decoration="none" x="291" fill="#4b4b4b" font-size="18pt" font-family="noto_regular"  y="26">time&#160;</text><text text-decoration="none" x="346" fill="#4b4b4b" font-size="18pt" font-family="noto_regular"  y="26">and&#160;</text><text text-decoration="none" x="0" fill="#4b4b4b" font-size="18pt" font-family="noto_regular"  y="59">within&#160;</text><text text-decoration="none" x="75" fill="#4b4b4b" font-size="18pt" font-family="noto_regular"  y="59">budget</text><text text-decoration="none" x="154" fill="#4b4b4b" font-size="10pt" font-family="noto_regular"  y="59"></text></g></g><g id="RMZa8d7EtAQ"><g transform="translate(2299.9999999999955 120.00000000000023)"><rect x="0" y="0" width="440" height="119.99999999999935" fill="rgb(201,210,250)" stroke="#ffffff" stroke-width="2" stroke-linecap="round" stroke-linejoin="round"/></g><g transform="translate(2309.9999999999955, 130.7999999999999) rotate(0, 0, 49.2)" width="199.32" height="98.4"><text text-decoration="none" x="0" fill="#4b4b4b" font-size="18pt" font-family="noto_regular"  y="26">Email&#160;</text><text text-decoration="none" x="66" fill="#4b4b4b" font-size="18pt" font-family="noto_regular"  y="26"></text><text text-decoration="none" x="0" fill="#4b4b4b" font-size="18pt" font-family="noto_regular"  y="59">Slack</text><text text-decoration="none" x="56" fill="#4b4b4b" font-size="18pt" font-family="noto_regular"  y="59"></text><text text-decoration="none" x="0" fill="#4b4b4b" font-size="18pt" font-family="noto_regular"  y="92">Video&#160;</text><text text-decoration="none" x="69" fill="#4b4b4b" font-size="18pt" font-family="noto_regular"  y="92">Conference</text><text text-decoration="none" x="197" fill="#4b4b4b" font-size="10pt" font-family="noto_regular"  y="92"></text></g></g><g id="Zp0Nbwe2K6S"><g transform="translate(-120 240)"><rect x="0" y="0" width="419.99999999999994" height="119.99999999999935" fill="rgb(201,210,250)" stroke="#ffffff" stroke-width="2" stroke-linecap="round" stroke-linejoin="round"/></g><g transform="translate(-110, 283.5999999999997) rotate(0, 0, 16.4)" width="111.98" height="32.8"><text text-decoration="none" x="0" fill="#4b4b4b" font-size="18pt" font-family="noto_regular"  y="26">Bill&#160;</text><text text-decoration="none" x="40" fill="#4b4b4b" font-size="18pt" font-family="noto_regular"  y="26">Evans&#160;</text><text text-decoration="none" x="110" fill="#4b4b4b" font-size="10pt" font-family="noto_regular"  y="26"></text></g></g><g id="87RCDF1MREb"><g transform="translate(299.9999999999998 240.00000000000045)"><rect x="0" y="0" width="299.999999999999" height="119.99999999999935" fill="rgb(201,210,250)" stroke="#ffffff" stroke-width="2" stroke-linecap="round" stroke-linejoin="round"/></g><g transform="translate(309.9999999999998, 283.60000000000014) rotate(0, 0, 16.4)" width="93.23" height="32.8"><text text-decoration="none" x="0" fill="#4b4b4b" font-size="18pt" font-family="noto_regular"  y="26">Sponsor</text><text text-decoration="none" x="94" fill="#4b4b4b" font-size="10pt" font-family="noto_regular"  y="26"></text></g></g><g id="TKTUZeVpLdH"><g transform="translate(599.9999999999998 240.00000000000045)"><rect x="0" y="0" width="440" height="120" fill="rgb(201,210,250)" stroke="#ffffff" stroke-width="2" stroke-linecap="round" stroke-linejoin="round"/></g><g transform="translate(609.9999999999998, 250.80000000000047) rotate(0, 0, 49.2)" width="263.64" height="98.4"><text text-decoration="none" x="0" fill="#4b4b4b" font-size="18pt" font-family="noto_regular"  y="26">Phone:&#160;</text><text text-decoration="none" x="84" fill="#4b4b4b" font-size="18pt" font-family="noto_regular"  y="26">+61&#160;</text><text text-decoration="none" x="0" fill="#4b4b4b" font-size="18pt" font-family="noto_regular"  y="59">5698600777</text><text text-decoration="none" x="140" fill="#4b4b4b" font-size="18pt" font-family="noto_regular"  y="59"></text><text text-decoration="none" x="0" fill="#4b4b4b" font-size="18pt" font-family="noto_regular"  y="92">Email:&#160;</text><text text-decoration="none" x="72" fill="#4b4b4b" font-size="18pt" font-family="noto_regular"  y="92">bill@mail.com</text><text text-decoration="none" x="228" fill="#4b4b4b" font-size="18pt" font-family="noto_regular"  y="92"></text><text text-decoration="none" x="131.82" fill="#4b4b4b" font-size="10pt" font-family="noto_regular"  y="116"></text></g></g><g id="pg4pfE4M8k0"><g transform="translate(1040.0000000000002 240.00000000000045)"><rect x="0" y="0" width="279.99999999999983" height="119.99999999999935" fill="rgb(201,210,250)" stroke="#ffffff" stroke-width="2" stroke-linecap="round" stroke-linejoin="round"/></g><g transform="translate(1050.0000000000002, 283.60000000000014) rotate(0, 0, 16.4)" width="95.82" height="32.8"><text text-decoration="none" x="0" fill="#4b4b4b" font-size="18pt" font-family="noto_regular"  y="26">Internal&#160;</text><text text-decoration="none" x="93" fill="#4b4b4b" font-size="10pt" font-family="noto_regular"  y="26"></text></g></g><g id="txqKe7uHvF0"><g transform="translate(1319.9999999999993 240.0000000000009)"><rect x="0" y="0" width="270.00000000000034" height="119.99999999999935" fill="rgb(201,210,250)" stroke="#ffffff" stroke-width="2" stroke-linecap="round" stroke-linejoin="round"/></g><g transform="translate(1448.7649999999996, 283.4950000000006) rotate(0, 6.235, 16.505)" width="12.47" height="33.01"><text text-decoration="none" x="12.235" fill="#4b4b4b" font-size="10pt" font-family="noto_regular"  y="26"></text></g></g><g id="zBX3jeoPuUH"><g transform="translate(1589.9999999999957 240.0000000000009)"><rect x="0" y="0" width="270.00000000000034" height="119.99999999999935" fill="rgb(201,210,250)" stroke="#ffffff" stroke-width="2" stroke-linecap="round" stroke-linejoin="round"/></g><g transform="translate(1724.9949999999958, 291.00000000000057) rotate(0, 0.005, 9)" width="0.01" height="18"><text text-decoration="none" x="0.005" fill="#4b4b4b" font-size="10pt" font-family="noto_regular"  y="17"></text></g></g><g id="JeW03GeneKm"><g transform="translate(1860.0000000000002 240.00000000000045)"><rect x="0" y="0" width="440" height="119.99999999999935" fill="rgb(201,210,250)" stroke="#ffffff" stroke-width="2" stroke-linecap="round" stroke-linejoin="round"/></g><g transform="translate(1870.0000000000002, 267.2000000000001) rotate(0, 0, 32.8)" width="371.86" height="65.6"><text text-decoration="none" x="0" fill="#4b4b4b" font-size="18pt" font-family="noto_regular"  y="26">Responsive&#160;</text><text text-decoration="none" x="132" fill="#4b4b4b" font-size="18pt" font-family="noto_regular"  y="26">design&#160;</text><text text-decoration="none" x="211" fill="#4b4b4b" font-size="18pt" font-family="noto_regular"  y="26">across&#160;</text><text text-decoration="none" x="288" fill="#4b4b4b" font-size="18pt" font-family="noto_regular"  y="26">mobile&#160;</text><text text-decoration="none" x="0" fill="#4b4b4b" font-size="18pt" font-family="noto_regular"  y="59">devices&#160;</text><text text-decoration="none" x="87" fill="#4b4b4b" font-size="10pt" font-family="noto_regular"  y="59"></text></g></g><g id="V37euVh6JES"><g transform="translate(2299.9999999999955 240.00000000000045)"><rect x="0" y="0" width="440" height="119.99999999999935" fill="rgb(201,210,250)" stroke="#ffffff" stroke-width="2" stroke-linecap="round" stroke-linejoin="round"/></g><g transform="translate(2309.9999999999955, 267.2000000000001) rotate(0, 0, 32.8)" width="205.56" height="65.6"><text text-decoration="none" x="0" fill="#4b4b4b" font-size="18pt" font-family="noto_regular"  y="26">Email</text><text text-decoration="none" x="60" fill="#4b4b4b" font-size="18pt" font-family="noto_regular"  y="26"></text><text text-decoration="none" x="0" fill="#4b4b4b" font-size="18pt" font-family="noto_regular"  y="59">Video&#160;</text><text text-decoration="none" x="69" fill="#4b4b4b" font-size="18pt" font-family="noto_regular"  y="59">Conference&#160;</text><text text-decoration="none" x="203" fill="#4b4b4b" font-size="10pt" font-family="noto_regular"  y="59"></text></g></g><g id="k59d97WZOY0"><g transform="translate(-120.00000000000011 360)"><rect x="0" y="0" width="419.99999999999994" height="119.99999999999935" fill="rgb(201,210,250)" stroke="#ffffff" stroke-width="2" stroke-linecap="round" stroke-linejoin="round"/></g><g transform="translate(-110.00000000000011, 403.5999999999997) rotate(0, 0, 16.4)" width="162.84" height="32.8"><text text-decoration="none" x="0" fill="#4b4b4b" font-size="18pt" font-family="noto_regular"  y="26">Emily&#160;</text><text text-decoration="none" x="65" fill="#4b4b4b" font-size="18pt" font-family="noto_regular"  y="26">Grimms&#160;</text><text text-decoration="none" x="159" fill="#4b4b4b" font-size="10pt" font-family="noto_regular"  y="26"></text></g></g><g id="zgtrVcZFTWg"><g transform="translate(299.9999999999992 360.00000000000045)"><rect x="0" y="0" width="299.999999999999" height="119.99999999999935" fill="rgb(201,210,250)" stroke="#ffffff" stroke-width="2" stroke-linecap="round" stroke-linejoin="round"/></g><g transform="translate(309.9999999999992, 403.60000000000014) rotate(0, 0, 16.4)" width="148.33" height="32.8"><text text-decoration="none" x="0" fill="#4b4b4b" font-size="18pt" font-family="noto_regular"  y="26">QA&#160;</text><text text-decoration="none" x="40" fill="#4b4b4b" font-size="18pt" font-family="noto_regular"  y="26">Manager&#160;</text><text text-decoration="none" x="145" fill="#4b4b4b" font-size="10pt" font-family="noto_regular"  y="26"></text></g></g><g id="lUrjA95D5Ng"><g transform="translate(599.9999999999991 360.00000000000045)"><rect x="0" y="0" width="440" height="119.99999999999935" fill="rgb(201,210,250)" stroke="#ffffff" stroke-width="2" stroke-linecap="round" stroke-linejoin="round"/></g><g transform="translate(609.9999999999991, 370.8000000000001) rotate(0, 0, 49.2)" width="263.64" height="98.4"><text text-decoration="none" x="0" fill="#4b4b4b" font-size="18pt" font-family="noto_regular"  y="26">Phone:&#160;</text><text text-decoration="none" x="84" fill="#4b4b4b" font-size="18pt" font-family="noto_regular"  y="26">+61&#160;</text><text text-decoration="none" x="0" fill="#4b4b4b" font-size="18pt" font-family="noto_regular"  y="59">5698600777</text><text text-decoration="none" x="140" fill="#4b4b4b" font-size="18pt" font-family="noto_regular"  y="59"></text><text text-decoration="none" x="0" fill="#4b4b4b" font-size="18pt" font-family="noto_regular"  y="92">Email:&#160;</text><text text-decoration="none" x="72" fill="#4b4b4b" font-size="18pt" font-family="noto_regular"  y="92">emily@mail.com</text><text text-decoration="none" x="254" fill="#4b4b4b" font-size="18pt" font-family="noto_regular"  y="92"></text><text text-decoration="none" x="131.82" fill="#4b4b4b" font-size="10pt" font-family="noto_regular"  y="116"></text></g></g><g id="3ayBQXtWkaP"><g transform="translate(1039.999999999999 360.00000000000045)"><rect x="0" y="0" width="279.99999999999983" height="119.99999999999935" fill="rgb(201,210,250)" stroke="#ffffff" stroke-width="2" stroke-linecap="round" stroke-linejoin="round"/></g><g transform="translate(1049.999999999999, 403.60000000000014) rotate(0, 0, 16.4)" width="95.82" height="32.8"><text text-decoration="none" x="0" fill="#4b4b4b" font-size="18pt" font-family="noto_regular"  y="26">Internal&#160;</text><text text-decoration="none" x="93" fill="#4b4b4b" font-size="10pt" font-family="noto_regular"  y="26"></text></g></g><g id="a07jBztXq6B"><g transform="translate(1319.999999999999 360.0000000000007)"><rect x="0" y="0" width="270.00000000000034" height="119.99999999999935" fill="rgb(201,210,250)" stroke="#ffffff" stroke-width="2" stroke-linecap="round" stroke-linejoin="round"/></g><g transform="translate(1448.7649999999994, 403.49500000000035) rotate(0, 6.235, 16.505)" width="12.47" height="33.01"><text text-decoration="none" x="12.235" fill="#4b4b4b" font-size="10pt" font-family="noto_regular"  y="26"></text></g></g><g id="AUn0THj8R6k"><g transform="translate(1589.9999999999957 360.0000000000007)"><rect x="0" y="0" width="270.00000000000034" height="119.99999999999935" fill="rgb(201,210,250)" stroke="#ffffff" stroke-width="2" stroke-linecap="round" stroke-linejoin="round"/></g><g transform="translate(1724.9949999999958, 411.00000000000034) rotate(0, 0.005, 9)" width="0.01" height="18"><text text-decoration="none" x="0.005" fill="#4b4b4b" font-size="10pt" font-family="noto_regular"  y="17"></text></g></g><g id="RT0s9BiAzFg"><g transform="translate(1860.0000000000002 360.00000000000045)"><rect x="0" y="0" width="440" height="119.99999999999935" fill="rgb(201,210,250)" stroke="#ffffff" stroke-width="2" stroke-linecap="round" stroke-linejoin="round"/></g><g transform="translate(1870.0000000000002, 370.8000000000001) rotate(0, 0, 49.2)" width="196.87" height="98.4"><text text-decoration="none" x="0" fill="#4b4b4b" font-size="18pt" font-family="noto_regular"  y="26">Responsive&#160;</text><text text-decoration="none" x="132" fill="#4b4b4b" font-size="18pt" font-family="noto_regular"  y="26">UI</text><text text-decoration="none" x="156" fill="#4b4b4b" font-size="18pt" font-family="noto_regular"  y="26"></text><text text-decoration="none" x="0" fill="#4b4b4b" font-size="18pt" font-family="noto_regular"  y="59">No&#160;</text><text text-decoration="none" x="39" fill="#4b4b4b" font-size="18pt" font-family="noto_regular"  y="59">quality&#160;</text><text text-decoration="none" x="120" fill="#4b4b4b" font-size="18pt" font-family="noto_regular"  y="59">issues&#160;</text><text text-decoration="none" x="193" fill="#4b4b4b" font-size="18pt" font-family="noto_regular"  y="59"></text><text text-decoration="none" x="98.435" fill="#4b4b4b" font-size="10pt" font-family="noto_regular"  y="83"></text></g></g><g id="Bj6d0BKLGvc"><g transform="translate(2299.9999999999964 360.00000000000045)"><rect x="0" y="0" width="440" height="119.99999999999935" fill="rgb(201,210,250)" stroke="#ffffff" stroke-width="2" stroke-linecap="round" stroke-linejoin="round"/></g><g transform="translate(2309.9999999999964, 370.8000000000001) rotate(0, 0, 49.2)" width="224.17" height="98.4"><text text-decoration="none" x="0" fill="#4b4b4b" font-size="18pt" font-family="noto_regular"  y="26">Email&#160;</text><text text-decoration="none" x="66" fill="#4b4b4b" font-size="18pt" font-family="noto_regular"  y="26"></text><text text-decoration="none" x="0" fill="#4b4b4b" font-size="18pt" font-family="noto_regular"  y="59">Slack&#160;</text><text text-decoration="none" x="62" fill="#4b4b4b" font-size="18pt" font-family="noto_regular"  y="59"></text><text text-decoration="none" x="0" fill="#4b4b4b" font-size="18pt" font-family="noto_regular"  y="92">Video&#160;</text><text text-decoration="none" x="69" fill="#4b4b4b" font-size="18pt" font-family="noto_regular"  y="92">conferencing&#160;</text><text text-decoration="none" x="220" fill="#4b4b4b" font-size="10pt" font-family="noto_regular"  y="92"></text></g></g><g id="Aq9Mt6OmTfl"><g transform="translate(-120.00000000000011 480.0000000000002)"><rect x="0" y="0" width="419.99999999999994" height="119.99999999999935" fill="rgb(201,210,250)" stroke="#ffffff" stroke-width="2" stroke-linecap="round" stroke-linejoin="round"/></g><g transform="translate(-110.00000000000011, 530.9999999999999) rotate(0, 0, 9)" width="0.01" height="18"><text text-decoration="none" x="0.005" fill="#4b4b4b" font-size="10pt" font-family="noto_regular"  y="17"></text></g></g><g id="2gDXuXKbSJr"><g transform="translate(299.9999999999992 480.0000000000007)"><rect x="0" y="0" width="299.999999999999" height="119.99999999999935" fill="rgb(201,210,250)" stroke="#ffffff" stroke-width="2" stroke-linecap="round" stroke-linejoin="round"/></g><g transform="translate(309.9999999999992, 531.0000000000003) rotate(0, 0, 9)" width="0.01" height="18"><text text-decoration="none" x="0.005" fill="#4b4b4b" font-size="10pt" font-family="noto_regular"  y="17"></text></g></g><g id="NJUZf7r8S6U"><g transform="translate(599.9999999999991 480.0000000000007)"><rect x="0" y="0" width="440" height="119.99999999999935" fill="rgb(201,210,250)" stroke="#ffffff" stroke-width="2" stroke-linecap="round" stroke-linejoin="round"/></g><g transform="translate(609.9999999999991, 531.0000000000003) rotate(0, 0, 9)" width="0.01" height="18"><text text-decoration="none" x="0.005" fill="#4b4b4b" font-size="10pt" font-family="noto_regular"  y="17"></text></g></g><g id="WyM2C1PERqb"><g transform="translate(1039.999999999999 480.0000000000007)"><rect x="0" y="0" width="279.99999999999983" height="119.99999999999935" fill="rgb(201,210,250)" stroke="#ffffff" stroke-width="2" stroke-linecap="round" stroke-linejoin="round"/></g><g transform="translate(1049.999999999999, 531.0000000000003) rotate(0, 0, 9)" width="0.01" height="18"><text text-decoration="none" x="0.005" fill="#4b4b4b" font-size="10pt" font-family="noto_regular"  y="17"></text></g></g><g id="txuF7xIcgpn"><g transform="translate(1319.999999999999 480.00000000000114)"><rect x="0" y="0" width="270.00000000000034" height="119.99999999999935" fill="rgb(201,210,250)" stroke="#ffffff" stroke-width="2" stroke-linecap="round" stroke-linejoin="round"/></g><g transform="translate(1448.7649999999994, 523.4950000000008) rotate(0, 6.235, 16.505)" width="12.47" height="33.01"><text text-decoration="none" x="12.235" fill="#4b4b4b" font-size="10pt" font-family="noto_regular"  y="26"></text></g></g><g id="41fknjwMncX"><g transform="translate(1589.9999999999957 480.00000000000114)"><rect x="0" y="0" width="270.00000000000034" height="119.99999999999935" fill="rgb(201,210,250)" stroke="#ffffff" stroke-width="2" stroke-linecap="round" stroke-linejoin="round"/></g><g transform="translate(1724.9949999999958, 531.0000000000008) rotate(0, 0.005, 9)" width="0.01" height="18"><text text-decoration="none" x="0.005" fill="#4b4b4b" font-size="10pt" font-family="noto_regular"  y="17"></text></g></g><g id="xbDHnFS5kuK"><g transform="translate(1860.0000000000002 480.0000000000007)"><rect x="0" y="0" width="440" height="119.99999999999935" fill="rgb(201,210,250)" stroke="#ffffff" stroke-width="2" stroke-linecap="round" stroke-linejoin="round"/></g><g transform="translate(1870.0000000000002, 531.0000000000003) rotate(0, 0, 9)" width="0.01" height="18"><text text-decoration="none" x="0.005" fill="#4b4b4b" font-size="10pt" font-family="noto_regular"  y="17"></text></g></g><g id="ypxkOZW9XPJ"><g transform="translate(2299.9999999999964 480.0000000000007)"><rect x="0" y="0" width="440" height="119.99999999999935" fill="rgb(201,210,250)" stroke="#ffffff" stroke-width="2" stroke-linecap="round" stroke-linejoin="round"/></g><g transform="translate(2309.9999999999964, 531.0000000000003) rotate(0, 0, 9)" width="0.01" height="18"><text text-decoration="none" x="0.005" fill="#4b4b4b" font-size="10pt" font-family="noto_regular"  y="17"></text></g></g><g id="tteh1lxGOM6"><g transform="translate(-119.99999999999989 600)"><rect x="0" y="0" width="419.99999999999994" height="119.99999999999935" fill="rgb(201,210,250)" stroke="#ffffff" stroke-width="2" stroke-linecap="round" stroke-linejoin="round"/></g><g transform="translate(-109.99999999999989, 650.9999999999997) rotate(0, 0, 9)" width="0.01" height="18"><text text-decoration="none" x="0.005" fill="#4b4b4b" font-size="10pt" font-family="noto_regular"  y="17"></text></g></g><g id="JgmctdLV1xm"><g transform="translate(299.99999999999955 600)"><rect x="0" y="0" width="299.999999999999" height="119.99999999999935" fill="rgb(201,210,250)" stroke="#ffffff" stroke-width="2" stroke-linecap="round" stroke-linejoin="round"/></g><g transform="translate(309.99999999999955, 650.9999999999997) rotate(0, 0, 9)" width="0.01" height="18"><text text-decoration="none" x="0.005" fill="#4b4b4b" font-size="10pt" font-family="noto_regular"  y="17"></text></g></g><g id="X0ooxAbxsQF"><g transform="translate(599.9999999999998 600)"><rect x="0" y="0" width="440" height="119.99999999999935" fill="rgb(201,210,250)" stroke="#ffffff" stroke-width="2" stroke-linecap="round" stroke-linejoin="round"/></g><g transform="translate(609.9999999999998, 650.9999999999997) rotate(0, 0, 9)" width="0.01" height="18"><text text-decoration="none" x="0.005" fill="#4b4b4b" font-size="10pt" font-family="noto_regular"  y="17"></text></g></g><g id="a2DtbpoxvMF"><g transform="translate(1040 600)"><rect x="0" y="0" width="279.99999999999983" height="119.99999999999935" fill="rgb(201,210,250)" stroke="#ffffff" stroke-width="2" stroke-linecap="round" stroke-linejoin="round"/></g><g transform="translate(1050, 650.9999999999997) rotate(0, 0, 9)" width="0.01" height="18"><text text-decoration="none" x="0.005" fill="#4b4b4b" font-size="10pt" font-family="noto_regular"  y="17"></text></g></g><g id="zw965n8Jbf3"><g transform="translate(1319.999999999999 600.0000000000007)"><rect x="0" y="0" width="270.00000000000034" height="119.99999999999935" fill="rgb(201,210,250)" stroke="#ffffff" stroke-width="2" stroke-linecap="round" stroke-linejoin="round"/></g><g transform="translate(1448.7649999999994, 643.4950000000003) rotate(0, 6.235, 16.505)" width="12.47" height="33.01"><text text-decoration="none" x="12.235" fill="#4b4b4b" font-size="10pt" font-family="noto_regular"  y="26"></text></g></g><g id="UoUyq1cWmXa"><g transform="translate(1589.9999999999957 600.0000000000007)"><rect x="0" y="0" width="270.00000000000034" height="119.99999999999935" fill="rgb(201,210,250)" stroke="#ffffff" stroke-width="2" stroke-linecap="round" stroke-linejoin="round"/></g><g transform="translate(1724.9949999999958, 651.0000000000003) rotate(0, 0.005, 9)" width="0.01" height="18"><text text-decoration="none" x="0.005" fill="#4b4b4b" font-size="10pt" font-family="noto_regular"  y="17"></text></g></g><g id="95TjM666efh"><g transform="translate(1860.0000000000002 600)"><rect x="0" y="0" width="440" height="119.99999999999935" fill="rgb(201,210,250)" stroke="#ffffff" stroke-width="2" stroke-linecap="round" stroke-linejoin="round"/></g><g transform="translate(1870.0000000000002, 650.9999999999997) rotate(0, 0, 9)" width="0.01" height="18"><text text-decoration="none" x="0.005" fill="#4b4b4b" font-size="10pt" font-family="noto_regular"  y="17"></text></g></g><g id="ZAD2qv49zct"><g transform="translate(2299.9999999999955 600)"><rect x="0" y="0" width="440" height="119.99999999999935" fill="rgb(201,210,250)" stroke="#ffffff" stroke-width="2" stroke-linecap="round" stroke-linejoin="round"/></g><g transform="translate(2309.9999999999955, 650.9999999999997) rotate(0, 0, 9)" width="0.01" height="18"><text text-decoration="none" x="0.005" fill="#4b4b4b" font-size="10pt" font-family="noto_regular"  y="17"></text></g></g><g id="ZlUn9kGMUKF"><g transform="translate(-119.99999999999989 719.9999999999998)"><rect x="0" y="0" width="419.99999999999994" height="119.99999999999935" fill="rgb(201,210,250)" stroke="#ffffff" stroke-width="2" stroke-linecap="round" stroke-linejoin="round"/></g><g transform="translate(-109.99999999999989, 770.9999999999994) rotate(0, 0, 9)" width="0.01" height="18"><text text-decoration="none" x="0.005" fill="#4b4b4b" font-size="10pt" font-family="noto_regular"  y="17"></text></g></g><g id="Mg8711NFKbK"><g transform="translate(299.99999999999955 720.0000000000005)"><rect x="0" y="0" width="299.999999999999" height="119.99999999999935" fill="rgb(201,210,250)" stroke="#ffffff" stroke-width="2" stroke-linecap="round" stroke-linejoin="round"/></g><g transform="translate(309.99999999999955, 771.0000000000001) rotate(0, 0, 9)" width="0.01" height="18"><text text-decoration="none" x="0.005" fill="#4b4b4b" font-size="10pt" font-family="noto_regular"  y="17"></text></g></g><g id="pRS9rt8qaEE"><g transform="translate(599.9999999999998 720.0000000000005)"><rect x="0" y="0" width="440" height="119.99999999999935" fill="rgb(201,210,250)" stroke="#ffffff" stroke-width="2" stroke-linecap="round" stroke-linejoin="round"/></g><g transform="translate(609.9999999999998, 771.0000000000001) rotate(0, 0, 9)" width="0.01" height="18"><text text-decoration="none" x="0.005" fill="#4b4b4b" font-size="10pt" font-family="noto_regular"  y="17"></text></g></g><g id="dVuj2bIKkMG"><g transform="translate(1040 720.0000000000005)"><rect x="0" y="0" width="279.99999999999983" height="119.99999999999935" fill="rgb(201,210,250)" stroke="#ffffff" stroke-width="2" stroke-linecap="round" stroke-linejoin="round"/></g><g transform="translate(1050, 771.0000000000001) rotate(0, 0, 9)" width="0.01" height="18"><text text-decoration="none" x="0.005" fill="#4b4b4b" font-size="10pt" font-family="noto_regular"  y="17"></text></g></g><g id="pbO5xgH9qIT"><g transform="translate(1319.999999999999 720.0000000000011)"><rect x="0" y="0" width="270.00000000000034" height="119.99999999999935" fill="rgb(201,210,250)" stroke="#ffffff" stroke-width="2" stroke-linecap="round" stroke-linejoin="round"/></g><g transform="translate(1448.7649999999994, 763.4950000000008) rotate(0, 6.235, 16.505)" width="12.47" height="33.01"><text text-decoration="none" x="12.235" fill="#4b4b4b" font-size="10pt" font-family="noto_regular"  y="26"></text></g></g><g id="yTDRxrzKv4t"><g transform="translate(1589.9999999999957 720.0000000000011)"><rect x="0" y="0" width="270.00000000000034" height="119.99999999999935" fill="rgb(201,210,250)" stroke="#ffffff" stroke-width="2" stroke-linecap="round" stroke-linejoin="round"/></g><g transform="translate(1724.9949999999958, 771.0000000000008) rotate(0, 0.005, 9)" width="0.01" height="18"><text text-decoration="none" x="0.005" fill="#4b4b4b" font-size="10pt" font-family="noto_regular"  y="17"></text></g></g><g id="bs65kEPPTsa"><g transform="translate(1860.0000000000002 720.0000000000005)"><rect x="0" y="0" width="440" height="119.99999999999935" fill="rgb(201,210,250)" stroke="#ffffff" stroke-width="2" stroke-linecap="round" stroke-linejoin="round"/></g><g transform="translate(1870.0000000000002, 771.0000000000001) rotate(0, 0, 9)" width="0.01" height="18"><text text-decoration="none" x="0.005" fill="#4b4b4b" font-size="10pt" font-family="noto_regular"  y="17"></text></g></g><g id="clnbLbtDAQa"><g transform="translate(2299.9999999999955 720.0000000000005)"><rect x="0" y="0" width="440" height="119.99999999999935" fill="rgb(201,210,250)" stroke="#ffffff" stroke-width="2" stroke-linecap="round" stroke-linejoin="round"/></g><g transform="translate(2309.9999999999955, 771.0000000000001) rotate(0, 0, 9)" width="0.01" height="18"><text text-decoration="none" x="0.005" fill="#4b4b4b" font-size="10pt" font-family="noto_regular"  y="17"></text></g></g><g id="UEvqbfBLRIc"><g transform="translate(-119.99999999999989 840)"><rect x="0" y="0" width="419.99999999999994" height="119.99999999999935" fill="rgb(201,210,250)" stroke="#ffffff" stroke-width="2" stroke-linecap="round" stroke-linejoin="round"/></g><g transform="translate(-109.99999999999989, 890.9999999999997) rotate(0, 0, 9)" width="0.01" height="18"><text text-decoration="none" x="0.005" fill="#4b4b4b" font-size="10pt" font-family="noto_regular"  y="17"></text></g></g><g id="p15M4UCENG2"><g transform="translate(299.9999999999992 840.0000000000007)"><rect x="0" y="0" width="299.999999999999" height="119.99999999999935" fill="rgb(201,210,250)" stroke="#ffffff" stroke-width="2" stroke-linecap="round" stroke-linejoin="round"/></g><g transform="translate(309.9999999999992, 891.0000000000003) rotate(0, 0, 9)" width="0.01" height="18"><text text-decoration="none" x="0.005" fill="#4b4b4b" font-size="10pt" font-family="noto_regular"  y="17"></text></g></g><g id="1E1Ofvu7520"><g transform="translate(599.9999999999995 840.0000000000007)"><rect x="0" y="0" width="440" height="119.99999999999935" fill="rgb(201,210,250)" stroke="#ffffff" stroke-width="2" stroke-linecap="round" stroke-linejoin="round"/></g><g transform="translate(609.9999999999995, 891.0000000000003) rotate(0, 0, 9)" width="0.01" height="18"><text text-decoration="none" x="0.005" fill="#4b4b4b" font-size="10pt" font-family="noto_regular"  y="17"></text></g></g><g id="uCBZvW7aS9z"><g transform="translate(1039.999999999999 840.0000000000007)"><rect x="0" y="0" width="279.99999999999983" height="119.99999999999935" fill="rgb(201,210,250)" stroke="#ffffff" stroke-width="2" stroke-linecap="round" stroke-linejoin="round"/></g><g transform="translate(1049.999999999999, 891.0000000000003) rotate(0, 0, 9)" width="0.01" height="18"><text text-decoration="none" x="0.005" fill="#4b4b4b" font-size="10pt" font-family="noto_regular"  y="17"></text></g></g><g id="tRpO0r9sDli"><g transform="translate(1319.999999999999 840.0000000000007)"><rect x="0" y="0" width="270.00000000000034" height="119.99999999999935" fill="rgb(201,210,250)" stroke="#ffffff" stroke-width="2" stroke-linecap="round" stroke-linejoin="round"/></g><g transform="translate(1448.7649999999994, 883.4950000000003) rotate(0, 6.235, 16.505)" width="12.47" height="33.01"><text text-decoration="none" x="12.235" fill="#4b4b4b" font-size="10pt" font-family="noto_regular"  y="26"></text></g></g><g id="1M5dPV7yZdy"><g transform="translate(1589.9999999999957 840.0000000000007)"><rect x="0" y="0" width="270.00000000000034" height="119.99999999999935" fill="rgb(201,210,250)" stroke="#ffffff" stroke-width="2" stroke-linecap="round" stroke-linejoin="round"/></g><g transform="translate(1724.9949999999958, 891.0000000000003) rotate(0, 0.005, 9)" width="0.01" height="18"><text text-decoration="none" x="0.005" fill="#4b4b4b" font-size="10pt" font-family="noto_regular"  y="17"></text></g></g><g id="GotfeuxWCoR"><g transform="translate(1860.0000000000002 840.0000000000007)"><rect x="0" y="0" width="440" height="119.99999999999935" fill="rgb(201,210,250)" stroke="#ffffff" stroke-width="2" stroke-linecap="round" stroke-linejoin="round"/></g><g transform="translate(1870.0000000000002, 891.0000000000003) rotate(0, 0, 9)" width="0.01" height="18"><text text-decoration="none" x="0.005" fill="#4b4b4b" font-size="10pt" font-family="noto_regular"  y="17"></text></g></g><g id="l7cVd7gtIny"><g transform="translate(2299.9999999999964 840.0000000000007)"><rect x="0" y="0" width="440" height="119.99999999999935" fill="rgb(201,210,250)" stroke="#ffffff" stroke-width="2" stroke-linecap="round" stroke-linejoin="round"/></g><g transform="translate(2309.9999999999964, 891.0000000000003) rotate(0, 0, 9)" width="0.01" height="18"><text text-decoration="none" x="0.005" fill="#4b4b4b" font-size="10pt" font-family="noto_regular"  y="17"></text></g></g><g id="X9e1uD0aHWe"><g transform="translate(-119.99999999999989 960.0000000000005)"><rect x="0" y="0" width="419.99999999999994" height="119.99999999999935" fill="rgb(201,210,250)" stroke="#ffffff" stroke-width="2" stroke-linecap="round" stroke-linejoin="round"/></g><g transform="translate(-109.99999999999989, 1011.0000000000001) rotate(0, 0, 9)" width="0.01" height="18"><text text-decoration="none" x="0.005" fill="#4b4b4b" font-size="10pt" font-family="noto_regular"  y="17"></text></g></g><g id="Ht3khhhzcjM"><g transform="translate(299.9999999999992 960.0000000000005)"><rect x="0" y="0" width="299.999999999999" height="119.99999999999935" fill="rgb(201,210,250)" stroke="#ffffff" stroke-width="2" stroke-linecap="round" stroke-linejoin="round"/></g><g transform="translate(309.9999999999992, 1011.0000000000001) rotate(0, 0, 9)" width="0.01" height="18"><text text-decoration="none" x="0.005" fill="#4b4b4b" font-size="10pt" font-family="noto_regular"  y="17"></text></g></g><g id="ybLQXJON3ja"><g transform="translate(599.9999999999995 960.0000000000005)"><rect x="0" y="0" width="440" height="119.99999999999935" fill="rgb(201,210,250)" stroke="#ffffff" stroke-width="2" stroke-linecap="round" stroke-linejoin="round"/></g><g transform="translate(609.9999999999995, 1011.0000000000001) rotate(0, 0, 9)" width="0.01" height="18"><text text-decoration="none" x="0.005" fill="#4b4b4b" font-size="10pt" font-family="noto_regular"  y="17"></text></g></g><g id="PdnyLxCgxQp"><g transform="translate(1039.999999999999 960.0000000000005)"><rect x="0" y="0" width="279.99999999999983" height="119.99999999999935" fill="rgb(201,210,250)" stroke="#ffffff" stroke-width="2" stroke-linecap="round" stroke-linejoin="round"/></g><g transform="translate(1049.999999999999, 1011.0000000000001) rotate(0, 0, 9)" width="0.01" height="18"><text text-decoration="none" x="0.005" fill="#4b4b4b" font-size="10pt" font-family="noto_regular"  y="17"></text></g></g><g id="Hdz6JTq8ryi"><g transform="translate(1319.999999999999 960.0000000000011)"><rect x="0" y="0" width="270.00000000000034" height="119.99999999999935" fill="rgb(201,210,250)" stroke="#ffffff" stroke-width="2" stroke-linecap="round" stroke-linejoin="round"/></g><g transform="translate(1448.7649999999994, 1003.4950000000008) rotate(0, 6.235, 16.505)" width="12.47" height="33.01"><text text-decoration="none" x="12.235" fill="#4b4b4b" font-size="10pt" font-family="noto_regular"  y="26"></text></g></g><g id="QBkfQMZjb3T"><g transform="translate(1589.9999999999957 960.0000000000011)"><rect x="0" y="0" width="270.00000000000034" height="119.99999999999935" fill="rgb(201,210,250)" stroke="#ffffff" stroke-width="2" stroke-linecap="round" stroke-linejoin="round"/></g><g transform="translate(1724.9949999999958, 1011.0000000000008) rotate(0, 0.005, 9)" width="0.01" height="18"><text text-decoration="none" x="0.005" fill="#4b4b4b" font-size="10pt" font-family="noto_regular"  y="17"></text></g></g><g id="uF5vc7F62FD"><g transform="translate(1860.0000000000002 960.0000000000005)"><rect x="0" y="0" width="440" height="119.99999999999935" fill="rgb(201,210,250)" stroke="#ffffff" stroke-width="2" stroke-linecap="round" stroke-linejoin="round"/></g><g transform="translate(1870.0000000000002, 1011.0000000000001) rotate(0, 0, 9)" width="0.01" height="18"><text text-decoration="none" x="0.005" fill="#4b4b4b" font-size="10pt" font-family="noto_regular"  y="17"></text></g></g><g id="lwEfD1eyErO"><g transform="translate(2299.9999999999964 960.0000000000005)"><rect x="0" y="0" width="440" height="119.99999999999935" fill="rgb(201,210,250)" stroke="#ffffff" stroke-width="2" stroke-linecap="round" stroke-linejoin="round"/></g><g transform="translate(2309.9999999999964, 1011.0000000000001) rotate(0, 0, 9)" width="0.01" height="18"><text text-decoration="none" x="0.005" fill="#4b4b4b" font-size="10pt" font-family="noto_regular"  y="17"></text></g></g><g id="qAuDfrG7afw"><g transform="translate(1430 160)"><ellipse cx="25.000000000000632" cy="25.000000000000632" rx="25.000000000000632" ry="25.000000000000632" fill="rgb(239,168,176)" stroke="#e14f62" stroke-width="2" stroke-linecap="round" stroke-linejoin="round"/></g></g><g id="6atDlLx4mjn"><g transform="translate(1700 160)"><ellipse cx="25.000000000000632" cy="25.000000000000632" rx="25.000000000000632" ry="25.000000000000632" fill="rgb(239,168,176)" stroke="#e14f62" stroke-width="2" stroke-linecap="round" stroke-linejoin="round"/></g></g><g id="y01LmSjxhBw"><g transform="translate(1430 280.00000000000006)"><ellipse cx="25.000000000000632" cy="25.000000000000632" rx="25.000000000000632" ry="25.000000000000632" fill="rgb(245,213,101)" stroke="#f2c14b" stroke-width="2" stroke-linecap="round" stroke-linejoin="round"/></g></g><g id="GTyMqxaHQ8n"><g transform="translate(1700 280.00000000000006)"><ellipse cx="25.000000000000632" cy="25.000000000000632" rx="25.000000000000632" ry="25.000000000000632" fill="rgb(245,213,101)" stroke="#f2c14b" stroke-width="2" stroke-linecap="round" stroke-linejoin="round"/></g></g><g id="66Z5f7eVggQ"><g transform="translate(1429.9999999999998 400)"><ellipse cx="25.000000000000632" cy="25.000000000000632" rx="25.000000000000632" ry="25.000000000000632" fill="rgb(160,236,177)" stroke="#5ec269" stroke-width="2" stroke-linecap="round" stroke-linejoin="round"/></g></g><g id="7a8meMadhaE"><g transform="translate(1699.9999999999998 400)"><ellipse cx="25.000000000000632" cy="25.000000000000632" rx="25.000000000000632" ry="25.000000000000632" fill="rgb(160,236,177)" stroke="#5ec269" stroke-width="2" stroke-linecap="round" stroke-linejoin="round"/></g></g></svg>